<svg xmlns="http://www.w3.org/2000/svg" xmlns:xlink="http://www.w3.org/1999/xlink" version="1.1" x="0px" y="0px" viewBox="0 0 100 125"><title>Icons Copy 6</title><desc>Created with Sketch.</desc><g stroke="none" stroke-width="1" fill="none" fill-rule="evenodd"><path d="M22,41.8173913 C20.840202,41.8173913 19.9,40.8771893 19.9,39.7173913 C19.9,38.5575933 20.840202,37.6173913 22,37.6173913 L57.9044084,37.6173913 C59.0642064,37.6173913 60.0044084,38.5575933 60.0044084,39.7173913 C60.0044084,40.8771893 59.0642064,41.8173913 57.9044084,41.8173913 L22,41.8173913 Z" fill="#000000" fill-rule="nonzero"/><path d="M68.5615194,29.4717849 C68.9252817,28.3705091 70.1129297,27.7726363 71.2142054,28.1363986 C72.3154812,28.5001609 72.913354,29.6878089 72.5495917,30.7890847 L61.9940362,62.7456064 C61.6302739,63.8468822 60.4426259,64.444755 59.3413501,64.0809927 C58.2400744,63.7172304 57.6422016,62.5295824 58.0059638,61.4283066 L68.5615194,29.4717849 Z" fill="#000000" fill-rule="nonzero"/><path d="M28.3333333,52.4695652 C27.1735354,52.4695652 26.2333334,51.5293632 26.2333334,50.3695652 C26.2333334,49.2097673 27.1735354,48.2695653 28.3333333,48.2695653 L53.6886479,48.2695653 C54.8484458,48.2695653 55.7886478,49.2097673 55.7886478,50.3695652 C55.7886478,51.5293632 54.8484458,52.4695652 53.6886479,52.4695652 L28.3333333,52.4695652 Z" fill="#000000" fill-rule="nonzero"/><path d="M32.5555556,64.1869565 C31.3957576,64.1869565 30.4555556,63.2467545 30.4555556,62.0869565 C30.4555556,60.9271586 31.3957576,59.9869566 32.5555556,59.9869566 L60,59.9869566 C61.159798,59.9869566 62.1,60.9271586 62.1,62.0869565 C62.1,63.2467545 61.159798,64.1869565 60,64.1869565 L32.5555556,64.1869565 Z" fill="#000000" fill-rule="nonzero"/><path d="M70.5555556,32.2304347 C69.3957576,32.2304347 68.4555556,31.2902327 68.4555556,30.1304348 C68.4555556,28.9706368 69.3957576,28.0304348 70.5555556,28.0304348 L79,28.0304348 C80.159798,28.0304348 81.1,28.9706368 81.1,30.1304348 C81.1,31.2902327 80.159798,32.2304347 79,32.2304347 L70.5555556,32.2304347 Z" fill="#000000" fill-rule="nonzero"/><ellipse fill="#000000" cx="55.7777778" cy="72.7391304" rx="4.22222222" ry="4.26086957"/><ellipse fill="#000000" cx="36.7777778" cy="72.7391304" rx="4.22222222" ry="4.26086957"/></g></svg>